<?xml version="1.0" encoding="utf-8"?>
<!-- Generator: Adobe Illustrator 22.0.0, SVG Export Plug-In . SVG Version: 6.00 Build 0)  -->
<svg version="1.1" id="Layer_3" xmlns="http://www.w3.org/2000/svg" xmlns:xlink="http://www.w3.org/1999/xlink" x="0px" y="0px"
	 viewBox="0 0 14.8 13.1" style="enable-background:new 0 0 14.8 13.1;" xml:space="preserve">
<style type="text/css">
	.st0{fill:#13B5EA;}
	.st1{fill:#FFFFFF;}
</style>
<g>
	<g>
		<path class="st0" d="M14.2,6.8c0,2.8-3.1,5-6.8,5c-3.8,0-6.8-2.2-6.8-5c0-2.8,3.1-5,6.8-5C11.2,1.8,14.2,4.1,14.2,6.8"/>
		<path class="st1" d="M7.6,7.2H6.3v1.3h1.3c0.6,0,0.9-0.2,0.9-0.6v0C8.5,7.5,8.2,7.2,7.6,7.2 M8.3,5.9c0-0.4-0.3-0.6-0.8-0.6H6.3
			v1.2h1.1C7.9,6.5,8.3,6.3,8.3,5.9L8.3,5.9z M5.5,4.6h2.1c0.5,0,0.9,0.1,1.2,0.4C9,5.2,9.1,5.5,9.1,5.8v0c0,0.6-0.3,0.9-0.7,1
			C9,7,9.3,7.3,9.3,7.9v0c0,0.8-0.7,1.3-1.7,1.3H5.5V4.6z"/>
	</g>
</g>
</svg>
