<?xml version="1.0" encoding="utf-8"?>
<!-- Generator: Adobe Illustrator 22.0.0, SVG Export Plug-In . SVG Version: 6.00 Build 0)  -->
<svg version="1.1" id="Layer_1" xmlns="http://www.w3.org/2000/svg" xmlns:xlink="http://www.w3.org/1999/xlink" x="0px" y="0px"
	 viewBox="0 0 14.8 13.1" style="enable-background:new 0 0 14.8 13.1;" xml:space="preserve">
<style type="text/css">
	.st0{fill:#13B5EA;}
	.st1{fill:#FFFFFF;}
</style>
<g>
	<g>
		<path class="st0" d="M12.5,6.9c0,2.8-2.3,5.1-5.1,5.1c-2.8,0-5.1-2.3-5.1-5.1c0-2.8,2.3-5.1,5.1-5.1C10.2,1.8,12.5,4.1,12.5,6.9"
			/>
		<path class="st1" d="M5.4,6.9L5.4,6.9c0-1.3,1-2.3,2.3-2.3c0.8,0,1.3,0.3,1.8,0.7L8.9,5.9C8.6,5.5,8.2,5.3,7.7,5.3
			C6.8,5.3,6.2,6,6.2,6.9v0c0,0.9,0.6,1.6,1.5,1.6c0.6,0,0.9-0.2,1.3-0.6l0.5,0.5C9,8.9,8.5,9.2,7.6,9.2C6.3,9.2,5.4,8.2,5.4,6.9"/>
	</g>
</g>
</svg>
