<svg id="Layer_1" data-name="Layer 1" xmlns="http://www.w3.org/2000/svg" viewBox="0 0 36 36"><defs><style>.cls-1{fill:#d1d3d4;}.cls-2{fill:#5f6062;}</style></defs><title>Sun</title><polygon class="cls-1" points="0 36 36 36 36 0 0 36"/><path class="cls-2" d="M25,21.38A3.62,3.62,0,1,0,28.6,25,3.61,3.61,0,0,0,25,21.38" transform="translate(0 0)"/><rect class="cls-2" x="17.45" y="24.17" width="2.58" height="1.66"/><rect class="cls-2" x="29.97" y="24.17" width="2.58" height="1.66"/><polygon class="cls-2" points="19.08 29.77 20.25 30.94 22.07 29.11 20.9 27.94 19.08 29.77"/><polygon class="cls-2" points="30.92 20.23 29.75 19.05 27.93 20.88 29.1 22.06 30.92 20.23"/><rect class="cls-2" x="24.17" y="29.99" width="1.66" height="2.59" transform="translate(-0.03 0.03) rotate(-0.06)"/><rect class="cls-2" x="24.17" y="17.42" width="1.66" height="2.59"/><polygon class="cls-2" points="27.93 29.11 29.75 30.94 30.92 29.77 29.1 27.94 27.93 29.11"/><polygon class="cls-2" points="22.07 20.88 20.25 19.06 19.08 20.23 20.9 22.06 22.07 20.88"/></svg>