<?xml version="1.0" encoding="utf-8"?>
<!-- Generator: Adobe Illustrator 22.0.0, SVG Export Plug-In . SVG Version: 6.00 Build 0)  -->
<svg version="1.1" id="Layer_1" xmlns="http://www.w3.org/2000/svg" xmlns:xlink="http://www.w3.org/1999/xlink" x="0px" y="0px"
	 viewBox="0 0 36 36" style="enable-background:new 0 0 36 36;" xml:space="preserve">
<style type="text/css">
	.st0{fill:#D1D3D4;}
</style>
<title>Sun</title>
<polygon class="st0" points="0,36 36,36 36,0 "/>
<path d="M25,21.4c-2,0-3.6,1.6-3.6,3.6s1.6,3.6,3.6,3.6s3.6-1.6,3.6-3.6c0,0,0,0,0,0C28.6,23,27,21.4,25,21.4
	C25,21.4,25,21.4,25,21.4"/>
<rect x="17.5" y="24.2" width="2.6" height="1.7"/>
<rect x="30" y="24.2" width="2.6" height="1.7"/>
<polygon points="19.1,29.8 20.2,30.9 22.1,29.1 20.9,27.9 "/>
<polygon points="30.9,20.2 29.8,19 27.9,20.9 29.1,22.1 "/>
<rect x="24.2" y="30" transform="matrix(1 -1.047197e-03 1.047197e-03 1 -3.275184e-02 2.619997e-02)" width="1.7" height="2.6"/>
<rect x="24.2" y="17.4" width="1.7" height="2.6"/>
<polygon points="27.9,29.1 29.8,30.9 30.9,29.8 29.1,27.9 "/>
<polygon points="22.1,20.9 20.2,19.1 19.1,20.2 20.9,22.1 "/>
</svg>
