<?xml version="1.0" encoding="utf-8"?>
<!-- Generator: Adobe Illustrator 22.0.0, SVG Export Plug-In . SVG Version: 6.00 Build 0)  -->
<svg version="1.1" id="Layer_1" xmlns="http://www.w3.org/2000/svg" xmlns:xlink="http://www.w3.org/1999/xlink" x="0px" y="0px"
	 viewBox="0 0 9.9 9.9" style="enable-background:new 0 0 9.9 9.9;" xml:space="preserve">
<style type="text/css">
	.st0{fill:#5F6062;}
</style>
<g>
	<path class="st0" d="M4.9,2.6C3.6,2.6,2.6,3.7,2.6,5c0,1.3,1.1,2.4,2.4,2.4c1.3,0,2.4-1.1,2.4-2.4C7.3,3.7,6.2,2.6,4.9,2.6"/>
</g>
<rect y="4.4" class="st0" width="1.7" height="1.1"/>
<rect x="8.2" y="4.4" class="st0" width="1.7" height="1.1"/>
<polygon class="st0" points="1.1,8.1 1.8,8.9 3,7.7 2.3,6.9 "/>
<polygon class="st0" points="8.8,1.8 8.1,1.1 6.9,2.3 7.6,3 "/>
<rect x="4.4" y="8.2" transform="matrix(1 -1.122002e-03 1.122002e-03 1 -1.017595e-02 5.548879e-03)" class="st0" width="1.1" height="1.7"/>
<rect x="4.4" class="st0" width="1.1" height="1.7"/>
<polygon class="st0" points="6.9,7.7 8.1,8.9 8.8,8.1 7.6,6.9 "/>
<polygon class="st0" points="3,2.3 1.8,1.1 1.1,1.8 2.3,3 "/>
</svg>
