<?xml version="1.0" encoding="utf-8"?>
<!-- Generator: Adobe Illustrator 22.0.0, SVG Export Plug-In . SVG Version: 6.00 Build 0)  -->
<svg version="1.1" id="Layer_1" xmlns="http://www.w3.org/2000/svg" xmlns:xlink="http://www.w3.org/1999/xlink" x="0px" y="0px"
	 viewBox="0 0 165.5 18.6" style="enable-background:new 0 0 165.5 18.6;" xml:space="preserve">
<style type="text/css">
	.st0{fill:#FFFFFF;}
	.st1{fill:#B5121B;}
	.st2{fill:none;stroke:#FFFFFF;stroke-width:0.5;}
	.st3{fill:#C7C9CB;}
	.st4{fill:none;stroke:#FFFFFF;stroke-width:0.5;stroke-miterlimit:10;}
	.st5{font-family:'Helvetica-Bold';}
	.st6{font-size:4px;}
	.st7{fill:#5F6062;}
	.st8{font-size:3px;}
</style>
<rect class="st0" width="165.5" height="18.6"/>
<rect x="38.6" y="3.5" class="st1" width="24.6" height="6.5"/>
<rect x="38.6" y="3.5" class="st2" width="24.6" height="6.5"/>
<rect x="63.2" y="3.5" class="st1" width="24.6" height="6.5"/>
<rect x="63.2" y="3.5" class="st2" width="24.6" height="6.5"/>
<rect x="87.7" y="3.5" class="st1" width="24.6" height="6.5"/>
<rect x="87.7" y="3.5" class="st2" width="24.6" height="6.5"/>
<rect x="63.2" y="9.9" class="st3" width="24.6" height="5.3"/>
<rect x="63.2" y="9.9" class="st2" width="24.6" height="5.3"/>
<rect x="38.6" y="9.9" class="st3" width="24.6" height="5.3"/>
<rect x="38.6" y="9.9" class="st2" width="24.6" height="5.3"/>
<rect x="112.3" y="3.5" class="st1" width="24.6" height="6.5"/>
<rect x="112.3" y="3.5" class="st2" width="24.6" height="6.5"/>
<rect x="136.8" y="3.5" class="st1" width="24.5" height="6.5"/>
<rect x="136.8" y="3.5" class="st4" width="24.5" height="6.5"/>
<rect x="161.4" y="3.5" class="st4" width="0" height="6.5"/>
<text transform="matrix(1 0 0 1 14.9809 9.1914)"><tspan x="0" y="0" class="st1 st5 st6">TROPHI</tspan><tspan x="15.8" y="0" class="st1 st5 st6">C</tspan></text>
<text transform="matrix(1 0 0 1 14.9809 13.1914)"><tspan x="0" y="0" class="st1 st5 st6">LEVE</tspan><tspan x="10.9" y="0" class="st1 st5 st6">L</tspan></text>
<text transform="matrix(1 0 0 1 42.0034 13.5977)"><tspan x="0" y="0" class="st7 st5 st8">PRODUCE</tspan><tspan x="15.6" y="0" class="st7 st5 st8">R</tspan></text>
<text transform="matrix(1 0 0 1 66.185 13.5977)"><tspan x="0" y="0" class="st7 st5 st8">HERBIVOR</tspan><tspan x="16.5" y="0" class="st7 st5 st8">E</tspan></text>
<rect x="87.7" y="9.9" class="st3" width="73.6" height="5.3"/>
<rect x="87.7" y="9.9" class="st2" width="73.6" height="5.3"/>
<g>
	<text transform="matrix(1 0 0 1 115.1548 13.5977)" class="st1 st5 st8">CARNIVORE</text>
</g>
<g>
	<g>
		<path class="st1" d="M6,11.8c0.1,0.5,0.3,0.9,0.5,1.1c0.2,0.3,0.6,0.4,1.1,0.4c0.6,0,1-0.2,1.3-0.6c0.3-0.4,0.4-0.9,0.4-1.5
			c0-0.6-0.1-1.1-0.4-1.5C8.6,9.4,8.2,9.2,7.6,9.2c-0.3,0-0.5,0-0.7,0.1C6.6,9.4,6.3,9.7,6.1,10l-2-0.1l0.8-6.3h6.2v1.9H6.5L6.1,8
			c0.3-0.2,0.6-0.4,0.8-0.4c0.3-0.1,0.7-0.2,1.2-0.2c0.9,0,1.8,0.3,2.4,0.9c0.7,0.6,1,1.5,1,2.8c0,1-0.3,2-1,2.8
			c-0.7,0.8-1.7,1.2-3,1.2c-1.1,0-2-0.3-2.7-0.9c-0.7-0.6-1.1-1.4-1.2-2.5H6z"/>
	</g>
</g>
</svg>
