<?xml version="1.0" encoding="utf-8"?>
<!-- Generator: Adobe Illustrator 22.0.0, SVG Export Plug-In . SVG Version: 6.00 Build 0)  -->
<svg version="1.1" id="Layer_1" xmlns="http://www.w3.org/2000/svg" xmlns:xlink="http://www.w3.org/1999/xlink" x="0px" y="0px"
	 viewBox="0 0 165.5 18.6" style="enable-background:new 0 0 165.5 18.6;" xml:space="preserve">
<style type="text/css">
	.st0{fill:#FFFFFF;}
	.st1{fill:#B5121B;}
	.st2{fill:none;stroke:#FFFFFF;stroke-width:0.5;}
	.st3{fill:#5F6062;}
	.st4{fill:#C7C9CB;}
	.st5{fill:none;stroke:#FFFFFF;stroke-width:0.5;stroke-miterlimit:10;}
	.st6{font-family:'Helvetica-Bold';}
	.st7{font-size:4px;}
	.st8{font-size:3px;}
</style>
<rect class="st0" width="165.5" height="18.6"/>
<rect x="38.6" y="3.5" class="st1" width="24.6" height="6.5"/>
<rect x="38.6" y="3.5" class="st2" width="24.6" height="6.5"/>
<rect x="63.2" y="3.5" class="st3" width="24.6" height="6.5"/>
<rect x="63.2" y="3.5" class="st2" width="24.6" height="6.5"/>
<rect x="87.7" y="3.5" class="st3" width="24.6" height="6.5"/>
<rect x="87.7" y="3.5" class="st2" width="24.6" height="6.5"/>
<rect x="63.2" y="9.9" class="st4" width="24.6" height="5.3"/>
<rect x="63.2" y="9.9" class="st2" width="24.6" height="5.3"/>
<rect x="38.6" y="9.9" class="st4" width="24.6" height="5.3"/>
<rect x="38.6" y="9.9" class="st2" width="24.6" height="5.3"/>
<rect x="112.3" y="3.5" class="st3" width="24.6" height="6.5"/>
<rect x="112.3" y="3.5" class="st2" width="24.6" height="6.5"/>
<rect x="136.8" y="3.5" class="st3" width="24.5" height="6.5"/>
<rect x="136.8" y="3.5" class="st5" width="24.5" height="6.5"/>
<rect x="161.4" y="3.5" class="st5" width="0" height="6.5"/>
<text transform="matrix(1 0 0 1 14.9809 9.1914)"><tspan x="0" y="0" class="st1 st6 st7">TROPHI</tspan><tspan x="15.8" y="0" class="st1 st6 st7">C</tspan></text>
<text transform="matrix(1 0 0 1 14.9809 13.1914)"><tspan x="0" y="0" class="st1 st6 st7">LEVE</tspan><tspan x="10.9" y="0" class="st1 st6 st7">L</tspan></text>
<text transform="matrix(1 0 0 1 42.0034 13.5977)"><tspan x="0" y="0" class="st1 st6 st8">PRODUCE</tspan><tspan x="15.6" y="0" class="st1 st6 st8">R</tspan></text>
<text transform="matrix(1 0 0 1 66.1849 13.5977)"><tspan x="0" y="0" class="st3 st6 st8">HERBIVOR</tspan><tspan x="16.5" y="0" class="st3 st6 st8">E</tspan></text>
<g>
	<g>
		<path class="st1" d="M4.5,7V5.5c0.7,0,1.2-0.1,1.5-0.1C6.4,5.2,6.8,5.1,7,4.8c0.2-0.2,0.3-0.5,0.4-0.8c0.1-0.2,0.1-0.4,0.1-0.5
			h1.9v11.3H7.1V7H4.5z"/>
	</g>
</g>
<rect x="87.7" y="9.9" class="st4" width="73.6" height="5.3"/>
<rect x="87.7" y="9.9" class="st2" width="73.6" height="5.3"/>
<g>
	<text transform="matrix(1 0 0 1 115.1548 13.5977)" class="st3 st6 st8">CARNIVORE</text>
</g>
</svg>
