<?xml version="1.0" encoding="utf-8"?>
<!-- Generator: Adobe Illustrator 22.0.0, SVG Export Plug-In . SVG Version: 6.00 Build 0)  -->
<svg version="1.1" id="Layer_1" xmlns="http://www.w3.org/2000/svg" xmlns:xlink="http://www.w3.org/1999/xlink" x="0px" y="0px"
	 viewBox="0 0 165.5 18.6" style="enable-background:new 0 0 165.5 18.6;" xml:space="preserve">
<style type="text/css">
	.st0{fill:#FFFFFF;}
	.st1{fill:#B5121B;}
	.st2{fill:none;stroke:#FFFFFF;stroke-width:0.5;}
	.st3{fill:#5F6062;}
	.st4{fill:#C7C9CB;}
	.st5{fill:none;stroke:#FFFFFF;stroke-width:0.5;stroke-miterlimit:10;}
	.st6{font-family:'Helvetica-Bold';}
	.st7{font-size:4px;}
	.st8{font-size:3px;}
</style>
<rect class="st0" width="165.5" height="18.6"/>
<rect x="38.6" y="3.5" class="st1" width="24.6" height="6.5"/>
<rect x="38.6" y="3.5" class="st2" width="24.6" height="6.5"/>
<rect x="63.2" y="3.5" class="st1" width="24.6" height="6.5"/>
<rect x="63.2" y="3.5" class="st2" width="24.6" height="6.5"/>
<rect x="87.7" y="3.5" class="st3" width="24.6" height="6.5"/>
<rect x="87.7" y="3.5" class="st2" width="24.6" height="6.5"/>
<rect x="63.2" y="9.9" class="st4" width="24.6" height="5.3"/>
<rect x="63.2" y="9.9" class="st2" width="24.6" height="5.3"/>
<rect x="38.6" y="9.9" class="st4" width="24.6" height="5.3"/>
<rect x="38.6" y="9.9" class="st2" width="24.6" height="5.3"/>
<rect x="112.3" y="3.5" class="st3" width="24.6" height="6.5"/>
<rect x="112.3" y="3.5" class="st2" width="24.6" height="6.5"/>
<rect x="136.8" y="3.5" class="st3" width="24.5" height="6.5"/>
<rect x="136.8" y="3.5" class="st5" width="24.5" height="6.5"/>
<rect x="161.4" y="3.5" class="st5" width="0" height="6.5"/>
<text transform="matrix(1 0 0 1 14.9809 9.1914)"><tspan x="0" y="0" class="st1 st6 st7">TROPHI</tspan><tspan x="15.8" y="0" class="st1 st6 st7">C</tspan></text>
<text transform="matrix(1 0 0 1 14.9809 13.1914)"><tspan x="0" y="0" class="st1 st6 st7">LEVE</tspan><tspan x="10.9" y="0" class="st1 st6 st7">L</tspan></text>
<text transform="matrix(1 0 0 1 42.0034 13.5977)"><tspan x="0" y="0" class="st3 st6 st8">PRODUCE</tspan><tspan x="15.6" y="0" class="st3 st6 st8">R</tspan></text>
<text transform="matrix(1 0 0 1 66.185 13.5977)"><tspan x="0" y="0" class="st1 st6 st8">HERBIVOR</tspan><tspan x="16.5" y="0" class="st1 st6 st8">E</tspan></text>
<rect x="87.7" y="9.9" class="st4" width="73.6" height="5.3"/>
<rect x="87.7" y="9.9" class="st2" width="73.6" height="5.3"/>
<g>
	<text transform="matrix(1 0 0 1 115.1548 13.5977)" class="st3 st6 st8">CARNIVORE</text>
</g>
<g>
	<g>
		<path class="st1" d="M4.4,12.6c0.3-0.8,1.1-1.6,2.2-2.4c1-0.7,1.7-1.3,2-1.6c0.5-0.5,0.7-1,0.7-1.6c0-0.5-0.1-0.9-0.4-1.2
			C8.7,5.5,8.3,5.3,7.8,5.3c-0.7,0-1.1,0.3-1.4,0.8C6.3,6.4,6.2,6.8,6.1,7.5H4c0-1,0.2-1.7,0.5-2.3C5.1,4,6.2,3.4,7.7,3.4
			c1.2,0,2.2,0.3,2.9,1c0.7,0.7,1.1,1.5,1.1,2.6c0,0.8-0.3,1.6-0.8,2.2c-0.3,0.4-0.9,0.9-1.6,1.4l-0.9,0.6c-0.6,0.4-0.9,0.7-1.1,0.9
			c-0.2,0.2-0.4,0.4-0.5,0.6h4.9v2H3.9C3.9,14,4.1,13.3,4.4,12.6z"/>
	</g>
</g>
</svg>
